<svg width="15" height="16" viewBox="0 0 15 16" fill="none" xmlns="http://www.w3.org/2000/svg">
<path d="M8.5 0.333333C8.21151 0.116963 7.86062 0 7.5 0C7.13938 0 6.78849 0.116963 6.5 0.333333L0.666667 4.70833C0.459673 4.86358 0.291668 5.06488 0.175955 5.29631C0.0602418 5.52774 0 5.78292 0 6.04167V13.9583C0 14.4004 0.175595 14.8243 0.488155 15.1368C0.800716 15.4494 1.22464 15.625 1.66667 15.625H4.91667C5.15978 15.625 5.39294 15.5284 5.56485 15.3565C5.73676 15.1846 5.83333 14.9514 5.83333 14.7083V10.625C5.83333 10.183 6.00893 9.75905 6.32149 9.44649C6.63405 9.13393 7.05797 8.95833 7.5 8.95833C7.94203 8.95833 8.36595 9.13393 8.67851 9.44649C8.99107 9.75905 9.16667 10.183 9.16667 10.625V14.7083C9.16667 14.9514 9.26324 15.1846 9.43515 15.3565C9.60706 15.5284 9.84022 15.625 10.0833 15.625H13.3333C13.7754 15.625 14.1993 15.4494 14.5118 15.1368C14.8244 14.8243 15 14.4004 15 13.9583V6.04167C15 5.78292 14.9398 5.52774 14.824 5.29631C14.7083 5.06488 14.5403 4.86358 14.3333 4.70833L8.5 0.333333Z" fill="#414141"/>
</svg>
