<svg width="14" height="14" viewBox="0 0 14 14" fill="none" xmlns="http://www.w3.org/2000/svg">
<path fill-rule="evenodd" clip-rule="evenodd" d="M6.66667 7.39858e-06C8.20525 -0.00228845 9.69689 0.529798 10.8867 1.50534L7.52867 4.86134C7.10863 4.66053 6.63169 4.61255 6.18007 4.72567C5.72845 4.8388 5.33045 5.10593 5.05466 5.48104C4.77888 5.85614 4.6426 6.3157 4.66932 6.78051C4.69604 7.24531 4.88407 7.68623 5.20102 8.02727C5.51796 8.3683 5.94396 8.58807 6.40556 8.6487C6.86717 8.70934 7.33547 8.60703 7.72973 8.35941C8.124 8.11179 8.41952 7.73439 8.56536 7.29225C8.7112 6.85011 8.69823 6.37094 8.52867 5.93734L8.472 5.80401L11.828 2.44667C12.8036 3.63642 13.3357 5.12808 13.3333 6.66667C13.3333 10.3487 10.3487 13.3333 6.66667 13.3333C2.98467 13.3333 0 10.3487 0 6.66667C0 2.98467 2.98467 7.39858e-06 6.66667 7.39858e-06ZM2 6.00001H1.37467C1.32866 6.36934 1.32107 6.74244 1.352 7.11334L1.37467 7.33334H2C2.16992 7.33315 2.33335 7.26809 2.45691 7.15144C2.58047 7.0348 2.65482 6.87537 2.66478 6.70574C2.67474 6.53612 2.61955 6.36909 2.51049 6.23879C2.40143 6.10848 2.24673 6.02474 2.078 6.00467L2 6.00001ZM11.9587 6.00001H11.3333C11.1634 6.0002 11 6.06526 10.8764 6.18191C10.7529 6.29855 10.6785 6.45798 10.6686 6.6276C10.6586 6.79723 10.7138 6.96426 10.8228 7.09456C10.9319 7.22486 11.0866 7.3086 11.2553 7.32867L11.3333 7.33334H11.9587C12.0047 6.96401 12.0123 6.5909 11.9813 6.22001L11.9587 6.00001ZM6.66667 6.00001C6.84348 6.00001 7.01305 6.07025 7.13807 6.19527C7.26309 6.32029 7.33333 6.48986 7.33333 6.66667C7.33333 6.84348 7.26309 7.01305 7.13807 7.13808C7.01305 7.2631 6.84348 7.33334 6.66667 7.33334C6.48986 7.33334 6.32029 7.2631 6.19526 7.13808C6.07024 7.01305 6 6.84348 6 6.66667C6 6.48986 6.07024 6.32029 6.19526 6.19527C6.32029 6.07025 6.48986 6.00001 6.66667 6.00001ZM3.396 2.45334C3.11439 2.67235 2.85533 2.91891 2.62267 3.18934L2.45333 3.39601L2.89533 3.83801C3.01503 3.95884 3.17638 4.02936 3.34636 4.03513C3.51635 4.0409 3.68211 3.98148 3.80972 3.86903C3.93733 3.75658 4.01713 3.59962 4.0328 3.43026C4.04847 3.2609 3.99881 3.09195 3.894 2.95801L3.838 2.89534L3.396 2.45334ZM6.66667 1.33334C6.4438 1.33326 6.22115 1.34707 6 1.37467V2.00001C6 2.17682 6.07024 2.34639 6.19526 2.47141C6.32029 2.59644 6.48986 2.66667 6.66667 2.66667C6.84348 2.66667 7.01305 2.59644 7.13807 2.47141C7.26309 2.34639 7.33333 2.17682 7.33333 2.00001V1.37467C7.11218 1.34712 6.88953 1.33331 6.66667 1.33334Z" fill="#217C38"/>
</svg>
