<svg width="28" height="28" viewBox="0 0 28 28" fill="none" xmlns="http://www.w3.org/2000/svg">
<rect width="28" height="28" rx="8" fill="#F3F3F3"/>
<g clip-path="url(#clip0_370_4961)">
<g clip-path="url(#clip1_370_4961)">
<path d="M14 6.5C12.6076 6.5 11.2723 7.05312 10.2877 8.03769C9.30313 9.02226 8.75001 10.3576 8.75001 11.75V14.396C8.75012 14.5123 8.72316 14.6271 8.67126 14.7313L7.38351 17.306C7.3206 17.4318 7.2909 17.5716 7.29722 17.7121C7.30354 17.8526 7.34567 17.9891 7.41962 18.1088C7.49356 18.2284 7.59686 18.3271 7.71971 18.3956C7.84255 18.4641 7.98087 18.5 8.12151 18.5H19.8785C20.0192 18.5 20.1575 18.4641 20.2803 18.3956C20.4032 18.3271 20.5065 18.2284 20.5804 18.1088C20.6543 17.9891 20.6965 17.8526 20.7028 17.7121C20.7091 17.5716 20.6794 17.4318 20.6165 17.306L19.3295 14.7313C19.2774 14.6272 19.2501 14.5124 19.25 14.396V11.75C19.25 10.3576 18.6969 9.02226 17.7123 8.03769C16.7278 7.05312 15.3924 6.5 14 6.5ZM14 20.75C13.5345 20.7501 13.0805 20.606 12.7004 20.3373C12.3203 20.0687 12.0328 19.6888 11.8775 19.25H16.1225C15.9673 19.6888 15.6798 20.0687 15.2996 20.3373C14.9195 20.606 14.4655 20.7501 14 20.75Z" fill="#414141"/>
</g>
</g>
<defs>
<clipPath id="clip0_370_4961">
<rect width="18" height="18" fill="white" transform="translate(5 5)"/>
</clipPath>
<clipPath id="clip1_370_4961">
<rect width="18" height="18" fill="white" transform="translate(5 5)"/>
</clipPath>
</defs>
</svg>
