<svg width="14" height="14" viewBox="0 0 14 14" fill="none" xmlns="http://www.w3.org/2000/svg">
<path d="M9.42933 1.29733C9.52723 1.15018 9.67956 1.04792 9.85283 1.01305C10.0261 0.978167 10.2061 1.01352 10.3533 1.11133C11.2701 1.71926 12.0221 2.54478 12.5421 3.51416C13.0621 4.48355 13.3339 5.56662 13.3333 6.66667C13.3333 10.3487 10.3487 13.3333 6.66667 13.3333C2.98467 13.3333 1.00188e-06 10.3487 1.00188e-06 6.66667C-0.000602258 5.56662 0.271232 4.48355 0.79123 3.51416C1.31123 2.54478 2.0632 1.71926 2.98 1.11133C3.12728 1.01347 3.30741 0.97812 3.48076 1.01306C3.6541 1.04801 3.80647 1.15038 3.90433 1.29767C4.0022 1.44495 4.03755 1.62508 4.0026 1.79842C3.96766 1.97177 3.86528 2.12414 3.718 2.222C2.76336 2.85541 2.03806 3.77939 1.64948 4.85714C1.2609 5.93489 1.22969 7.10913 1.56049 8.20599C1.89128 9.30286 2.56648 10.2641 3.48614 10.9473C4.40579 11.6305 5.521 11.9994 6.66667 11.9994C7.81233 11.9994 8.92754 11.6305 9.8472 10.9473C10.7669 10.2641 11.4421 9.30286 11.7729 8.20599C12.1036 7.10913 12.0724 5.93489 11.6839 4.85714C11.2953 3.77939 10.57 2.85541 9.61534 2.222C9.54233 2.17357 9.47958 2.11123 9.43068 2.03854C9.38178 1.96585 9.34769 1.88423 9.33035 1.79836C9.31301 1.71248 9.31277 1.62403 9.32964 1.53806C9.34651 1.45209 9.38083 1.37029 9.42933 1.29733ZM6.66667 0C6.82996 2.15404e-05 6.98756 0.0599708 7.10958 0.168477C7.23161 0.276983 7.30956 0.426499 7.32867 0.588667L7.33333 0.666667V7.33333C7.33315 7.50325 7.26808 7.66669 7.15144 7.79025C7.03479 7.9138 6.87537 7.98816 6.70574 7.99811C6.53611 8.00807 6.36908 7.95288 6.23878 7.84382C6.10848 7.73476 6.02474 7.58006 6.00467 7.41133L6 7.33333V0.666667C6 0.489856 6.07024 0.320286 6.19526 0.195262C6.32029 0.0702379 6.48986 0 6.66667 0Z" fill="#217C38"/>
</svg>
