<svg width="18" height="18" viewBox="0 0 18 18" fill="none" xmlns="http://www.w3.org/2000/svg">
<path fill-rule="evenodd" clip-rule="evenodd" d="M7.55944 0.487388C7.85442 0.192783 8.24911 0.0194323 8.66564 0.0015373C9.08216 -0.0163577 9.49026 0.122502 9.80943 0.390721L9.9161 0.488221L11.4994 2.07072H13.7378C14.1581 2.0708 14.5629 2.2297 14.871 2.51558C15.1792 2.80147 15.3679 3.19323 15.3994 3.61239L15.4044 3.73739V5.97572L16.9878 7.55905C17.2826 7.85409 17.4561 8.24895 17.474 8.66566C17.4919 9.08238 17.3529 9.49066 17.0844 9.80989L16.9869 9.91572L15.4036 11.4991V13.7374C15.4037 14.1579 15.2449 14.5629 14.959 14.8712C14.6731 15.1795 14.2812 15.3684 13.8619 15.3999L13.7378 15.4041H11.5003L9.91693 16.9874C9.6219 17.2822 9.22704 17.4557 8.81032 17.4736C8.39361 17.4915 7.98533 17.3525 7.6661 17.0841L7.56027 16.9874L5.97693 15.4041H3.73777C3.31729 15.4042 2.9123 15.2454 2.60398 14.9595C2.29566 14.6736 2.1068 14.2817 2.07527 13.8624L2.0711 13.7374V11.4991L0.487768 9.91572C0.19293 9.62069 0.0194329 9.22583 0.00153616 8.80911C-0.0163606 8.39239 0.122644 7.98411 0.391101 7.66489L0.487768 7.55905L2.0711 5.97572V3.73739C2.07118 3.31705 2.23008 2.91227 2.51597 2.60413C2.80185 2.29598 3.19362 2.10725 3.61277 2.07572L3.73777 2.07072H5.9761L7.55944 0.487388ZM8.73777 6.23739C8.07473 6.23739 7.43884 6.50078 6.97 6.96962C6.50116 7.43846 6.23777 8.07435 6.23777 8.73739C6.23777 9.40043 6.50116 10.0363 6.97 10.5052C7.43884 10.974 8.07473 11.2374 8.73777 11.2374C9.40081 11.2374 10.0367 10.974 10.5055 10.5052C10.9744 10.0363 11.2378 9.40043 11.2378 8.73739C11.2378 8.07435 10.9744 7.43846 10.5055 6.96962C10.0367 6.50078 9.40081 6.23739 8.73777 6.23739Z" fill="#414141"/>
</svg>
