<svg width="17" height="12" viewBox="0 0 17 12" fill="none" xmlns="http://www.w3.org/2000/svg">
<path fill-rule="evenodd" clip-rule="evenodd" d="M15 0C15.442 0 15.8659 0.175595 16.1785 0.488155C16.4911 0.800716 16.6667 1.22464 16.6667 1.66667V10C16.6667 10.442 16.4911 10.866 16.1785 11.1785C15.8659 11.4911 15.442 11.6667 15 11.6667H1.66667C1.22464 11.6667 0.800716 11.4911 0.488155 11.1785C0.175595 10.866 0 10.442 0 10V1.66667C0 1.22464 0.175595 0.800716 0.488155 0.488155C0.800716 0.175595 1.22464 0 1.66667 0H15ZM1.77083 7.5L1.66667 7.5025V9.17417C1.77015 9.15923 1.87564 9.16672 1.97597 9.19614C2.0763 9.22555 2.16914 9.2762 2.24818 9.34465C2.32722 9.4131 2.39061 9.49774 2.43406 9.59284C2.47751 9.68794 2.5 9.79128 2.5 9.89583L2.49833 9.94833L2.49167 10H4.16333L4.16667 9.89583C4.16667 9.26042 3.91425 8.65103 3.46494 8.20172C3.01564 7.75242 2.40625 7.5 1.77083 7.5ZM14.8958 7.5C14.2848 7.50001 13.6969 7.73348 13.2523 8.15265C12.8077 8.57183 12.5401 9.14503 12.5042 9.755L12.5 9.89583C12.5 9.93083 12.5 9.96583 12.5025 10H14.1742C14.158 9.88779 14.1682 9.77335 14.2039 9.66577C14.2397 9.55818 14.3001 9.46043 14.3803 9.38026C14.4604 9.30009 14.5582 9.23972 14.6658 9.20395C14.7733 9.16817 14.8878 9.15798 15 9.17417V7.5025L14.8958 7.5ZM8.33333 2.5C7.44928 2.5 6.60143 2.85119 5.97631 3.47631C5.35119 4.10143 5 4.94928 5 5.83333C5 6.71739 5.35119 7.56524 5.97631 8.19036C6.60143 8.81548 7.44928 9.16667 8.33333 9.16667C9.21739 9.16667 10.0652 8.81548 10.6904 8.19036C11.3155 7.56524 11.6667 6.71739 11.6667 5.83333C11.6667 4.94928 11.3155 4.10143 10.6904 3.47631C10.0652 2.85119 9.21739 2.5 8.33333 2.5ZM8.33333 4.16667C8.77536 4.16667 9.19928 4.34226 9.51184 4.65482C9.8244 4.96738 10 5.39131 10 5.83333C10 6.27536 9.8244 6.69928 9.51184 7.01184C9.19928 7.32441 8.77536 7.5 8.33333 7.5C7.89131 7.5 7.46738 7.32441 7.15482 7.01184C6.84226 6.69928 6.66667 6.27536 6.66667 5.83333C6.66667 5.39131 6.84226 4.96738 7.15482 4.65482C7.46738 4.34226 7.89131 4.16667 8.33333 4.16667ZM4.16667 1.66667H2.5V1.77083C2.5 1.87539 2.47751 1.97872 2.43406 2.07382C2.39061 2.16893 2.32722 2.25357 2.24818 2.32202C2.16914 2.39046 2.0763 2.44111 1.97597 2.47053C1.87564 2.49994 1.77015 2.50744 1.66667 2.4925V4.16417L1.77083 4.16667C2.08546 4.16667 2.397 4.1047 2.68768 3.98429C2.97835 3.86389 3.24247 3.68742 3.46494 3.46494C3.68742 3.24247 3.86389 2.97836 3.98429 2.68768C4.1047 2.397 4.16667 2.08546 4.16667 1.77083V1.66667ZM14.1742 1.66667H12.5025L12.5 1.77083C12.5 2.38186 12.7335 2.9698 13.1526 3.41438C13.5718 3.85896 14.145 4.12658 14.755 4.1625L14.9483 4.16583L15 4.16417V2.4925C14.8965 2.50744 14.791 2.49994 14.6907 2.47053C14.5904 2.44111 14.4975 2.39046 14.4185 2.32202C14.3395 2.25357 14.2761 2.16893 14.2326 2.07382C14.1892 1.97872 14.1667 1.87539 14.1667 1.77083L14.1683 1.71833L14.1742 1.66667Z" fill="#414141"/>
</svg>
