<svg width="19" height="18" viewBox="0 0 19 18" fill="none" xmlns="http://www.w3.org/2000/svg">
<path fill-rule="evenodd" clip-rule="evenodd" d="M3 0C2.46957 0 1.96086 0.210714 1.58579 0.585786C1.21071 0.960859 1 1.46957 1 2V16C0.734784 16 0.48043 16.1054 0.292893 16.2929C0.105357 16.4804 0 16.7348 0 17C0 17.2652 0.105357 17.5196 0.292893 17.7071C0.48043 17.8946 0.734784 18 1 18H13C13.2652 18 13.5196 17.8946 13.7071 17.7071C13.8946 17.5196 14 17.2652 14 17C14 16.7348 13.8946 16.4804 13.7071 16.2929C13.5196 16.1054 13.2652 16 13 16V11H14V13.5C14 14.163 14.2634 14.7989 14.7322 15.2678C15.2011 15.7366 15.837 16 16.5 16C17.163 16 17.7989 15.7366 18.2678 15.2678C18.7366 14.7989 19 14.163 19 13.5V7.414C18.9999 6.88361 18.7891 6.37499 18.414 6L15.707 3.293C15.6148 3.19749 15.5044 3.12131 15.3824 3.0689C15.2604 3.01649 15.1292 2.9889 14.9964 2.98775C14.8636 2.9866 14.7319 3.0119 14.609 3.06218C14.4862 3.11246 14.3745 3.18671 14.2806 3.2806C14.1867 3.3745 14.1125 3.48615 14.0622 3.60905C14.0119 3.73194 13.9866 3.86362 13.9877 3.9964C13.9889 4.12918 14.0165 4.2604 14.0689 4.3824C14.1213 4.50441 14.1975 4.61475 14.293 4.707L15.393 5.808C15.1717 6.10554 15.0375 6.45877 15.0055 6.8282C14.9734 7.19763 15.0447 7.56869 15.2115 7.8999C15.3782 8.23111 15.6338 8.50941 15.9497 8.70369C16.2655 8.89797 16.6292 9.00056 17 9L17.001 13.5C17.001 13.6326 16.9483 13.7598 16.8546 13.8536C16.7608 13.9473 16.6336 14 16.501 14C16.3684 14 16.2412 13.9473 16.1474 13.8536C16.0537 13.7598 16.001 13.6326 16.001 13.5V11C16.001 10.4696 15.7903 9.96086 15.4152 9.58579C15.0401 9.21071 14.5314 9 14.001 9H13.001V2C13.001 1.46957 12.7903 0.960859 12.4152 0.585786C12.0401 0.210714 11.5314 0 11.001 0H3ZM11 7V2H3V7H11Z" fill="#414141"/>
</svg>
