<svg width="15" height="14" viewBox="0 0 15 14" fill="none" xmlns="http://www.w3.org/2000/svg">
<path fill-rule="evenodd" clip-rule="evenodd" d="M1.66667 2.08333C1.66667 1.97283 1.71057 1.86685 1.78871 1.78871C1.86685 1.71057 1.97283 1.66667 2.08333 1.66667H10.8333C11.0543 1.66667 11.2663 1.57887 11.4226 1.42259C11.5789 1.26631 11.6667 1.05435 11.6667 0.833333C11.6667 0.61232 11.5789 0.400358 11.4226 0.244078C11.2663 0.0877975 11.0543 0 10.8333 0H2.08333C1.5308 0 1.0009 0.219493 0.610194 0.610194C0.219493 1.0009 0 1.5308 0 2.08333V11.6667C0 12.1087 0.175595 12.5326 0.488155 12.8452C0.800716 13.1577 1.22464 13.3333 1.66667 13.3333H13.3333C13.7754 13.3333 14.1993 13.1577 14.5118 12.8452C14.8244 12.5326 15 12.1087 15 11.6667V4.16667C15 3.72464 14.8244 3.30072 14.5118 2.98816C14.1993 2.67559 13.7754 2.5 13.3333 2.5H2.08333C1.97283 2.5 1.86685 2.4561 1.78871 2.37796C1.71057 2.29982 1.66667 2.19384 1.66667 2.08333ZM10.4167 9.16667C10.7482 9.16667 11.0661 9.03497 11.3005 8.80055C11.535 8.56613 11.6667 8.24819 11.6667 7.91667C11.6667 7.58515 11.535 7.2672 11.3005 7.03278C11.0661 6.79836 10.7482 6.66667 10.4167 6.66667C10.0851 6.66667 9.7672 6.79836 9.53278 7.03278C9.29836 7.2672 9.16667 7.58515 9.16667 7.91667C9.16667 8.24819 9.29836 8.56613 9.53278 8.80055C9.7672 9.03497 10.0851 9.16667 10.4167 9.16667Z" fill="#414141"/>
</svg>
